<svg width="116" height="50" viewBox="0 0 116 50" fill="none" xmlns="http://www.w3.org/2000/svg">
<path fill-rule="evenodd" clip-rule="evenodd" d="M15.2458 25.0672V21.8379H23.8627C25.4607 21.8379 26.516 22.4017 27.0822 22.9629C28.1599 24.0146 28.3079 25.5551 28.3079 26.6077V32.0344C28.3079 32.7215 28.2577 33.5025 27.6682 34.1146C27.0562 34.7491 26.1957 34.7991 25.4607 34.7991H17.7996C16.9867 34.7991 16.1037 34.7491 15.4164 34.1146C14.4104 33.2094 14.3594 31.4974 14.3594 30.4706C14.3594 29.3456 14.4589 27.9767 15.4908 27.1939C16.2015 26.6534 17.036 26.6319 17.7996 26.6319H23.4957V26.4362C23.4957 26.2155 23.4706 25.8758 23.2481 25.5793C22.881 25.0922 22.2673 25.0672 21.7756 25.0672H15.2458ZM23.4957 30.5189V29.7129H20.0806C19.9343 29.7129 19.5906 29.7362 19.3699 29.9336C19.1985 30.1051 19.1734 30.3241 19.1734 30.5448C19.1734 30.7388 19.1985 30.9362 19.3699 31.1069C19.5404 31.2551 19.8114 31.3267 20.0321 31.3267H22.5374C22.785 31.3267 23.1018 31.2767 23.2481 31.1577C23.4706 30.9836 23.4957 30.7388 23.4957 30.5189Z" fill="white"/>
<path fill-rule="evenodd" clip-rule="evenodd" d="M0.722027 34.799H10.028C10.6911 34.799 11.4771 34.7274 12.1636 34.1886C13.0492 33.4792 13.244 32.3792 13.244 31.4257C13.244 30.8628 13.1955 29.8102 12.5817 28.9317C11.9671 28.0257 10.9629 27.6326 9.58564 27.1705L6.29436 26.0705C5.7308 25.874 5.90307 25.8973 5.31355 25.7016C5.16638 25.655 5.04259 25.6042 5.04259 25.4076C5.04259 25.2386 5.14215 25.2119 5.26421 25.1886C5.46071 25.1404 5.65722 25.1662 5.82862 25.1662H12.9029V21.8369H4.20895C2.85937 21.8369 1.8751 22.0335 1.18689 23.0619C0.722027 23.7455 0.572266 24.5783 0.572266 25.3843C0.572266 26.0205 0.697788 26.9481 1.06483 27.5602C1.55653 28.3697 2.56158 28.8792 3.73976 29.2731L6.5428 30.1792C7.57035 30.5197 7.84391 30.5938 8.01444 30.6912C8.1114 30.7395 8.23346 30.8136 8.23346 30.9843C8.23346 31.1067 8.18671 31.1792 8.1114 31.2292L7.81794 31.3266H0.722027V34.799Z" fill="white"/>
<path fill-rule="evenodd" clip-rule="evenodd" d="M29.7207 34.799H34.533V26.0705C34.533 25.824 34.5572 25.5317 34.655 25.4076C34.7286 25.3343 34.8766 25.2119 35.2948 25.2119H37.1343V34.799H41.9492V25.2119H42.4911C43.226 25.2119 43.768 25.4835 44.0363 25.7766C44.5029 26.2645 44.5531 27.0723 44.5531 27.6102V34.799H49.3645V26.6317C49.3645 25.4335 48.8979 23.9904 47.989 23.1343C47.0082 22.2283 45.411 21.8369 43.9385 21.8369H32.767C31.7343 21.8369 30.8487 21.8869 30.1856 22.7188C29.7926 23.2076 29.7207 23.7697 29.7207 24.1611V34.799Z" fill="white"/>
<path fill-rule="evenodd" clip-rule="evenodd" d="M0.722027 49.0746H10.028C10.6911 49.0746 11.4771 49.0005 12.1636 48.4617C13.0492 47.7531 13.244 46.6513 13.244 45.6987C13.244 45.1367 13.1955 44.0858 12.5817 43.2039C11.9671 42.2987 10.9629 41.9082 9.58564 41.4444L6.29436 40.3453C5.7308 40.1487 5.90307 40.1737 5.31355 39.9781C5.16638 39.9281 5.04259 39.8789 5.04259 39.6832C5.04259 39.5117 5.14215 39.4875 5.26421 39.4625C5.46071 39.4151 5.65722 39.4367 5.82862 39.4367H12.9029V36.1143H4.20895C2.85937 36.1143 1.8751 36.3082 1.18689 37.3358C0.722027 38.0229 0.572266 38.8522 0.572266 39.6599C0.572266 40.2944 0.697788 41.2263 1.06483 41.8367C1.55653 42.6436 2.56158 43.1574 3.73976 43.547L6.5428 44.4513C7.57035 44.7944 7.84391 44.8686 8.01444 44.9643C8.1114 45.0134 8.23346 45.0875 8.23346 45.2591C8.23346 45.3806 8.18671 45.4548 8.1114 45.5013L7.81794 45.6013H0.722027V49.0746Z" fill="white"/>
<path fill-rule="evenodd" clip-rule="evenodd" d="M15.644 37.2874C17.0412 36.0382 19.3049 35.9658 21.3306 35.9658C23.3545 35.9658 25.6209 36.0382 27.0163 37.2874C28.6066 38.7296 28.7035 41.2977 28.7035 42.5934C28.7035 43.8882 28.6066 46.4581 27.0163 47.8994C25.6209 49.1503 23.3545 49.2244 21.3306 49.2244C19.3049 49.2244 17.0412 49.1503 15.644 47.8994C14.0555 46.4581 13.9551 43.8882 13.9551 42.5934C13.9551 41.2977 14.0555 38.7296 15.644 37.2874ZM19.2365 40.2701C19.066 40.5132 18.7777 41.0753 18.7777 42.5934C18.7777 44.0132 19.0426 44.5977 19.2365 44.8684C19.33 45.0132 19.8867 45.7477 21.3306 45.7477C22.6083 45.7477 23.184 45.1848 23.4013 44.8684C23.7891 44.3313 23.8843 43.5219 23.8843 42.5934C23.8843 41.2236 23.667 40.6124 23.4255 40.2701C23.184 39.9538 22.6317 39.4391 21.3306 39.4391C20.0295 39.4391 19.4746 39.9538 19.2365 40.2701Z" fill="white"/>
<path fill-rule="evenodd" clip-rule="evenodd" d="M39.002 36.1133V43.1788C39.002 45.1357 39.2963 46.871 40.6467 47.971C41.3133 48.5348 42.4404 49.0736 44.2817 49.0736H50.176C50.7162 49.0736 51.6226 49.0254 52.2857 48.4866C52.9973 47.8986 53.0951 47.1641 53.0951 46.4305V36.1133H48.2854V44.5478C48.2854 44.7935 48.2854 45.0866 48.0378 45.3305C47.8673 45.5012 47.5989 45.6004 47.2051 45.6004H46.3221C45.7577 45.6004 44.8219 45.5495 44.2817 44.7935C44.0125 44.4012 43.8177 43.79 43.8177 42.5685V36.1133H39.002Z" fill="white"/>
<path fill-rule="evenodd" clip-rule="evenodd" d="M64.4373 49.0738V45.6005H63.724C63.1102 45.6005 62.2766 45.5764 61.6135 44.9893C60.9019 44.3523 60.7781 43.3488 60.7781 42.3988V39.4359H64.4866V36.1135H60.7781V31.9531H55.9667V36.1135H54.1211V39.4359H55.9667V45.0126C55.9667 46.1859 56.5294 47.4592 57.6115 48.1936C58.9368 49.0738 60.6786 49.0738 61.6377 49.0738H64.4373Z" fill="white"/>
<path fill-rule="evenodd" clip-rule="evenodd" d="M65.873 49.0746H70.6853V36.1143H65.873V49.0746Z" fill="white"/>
<path fill-rule="evenodd" clip-rule="evenodd" d="M87.6875 49.0746H92.4998V40.4177C92.4998 40.1737 92.4755 39.9039 92.7205 39.6832C92.9188 39.5117 93.188 39.4875 93.3836 39.4875H94.2441C95.2249 39.4875 95.817 39.7315 96.2343 40.2703C96.6991 40.8591 96.7736 41.5918 96.7736 42.497V49.0746H101.588V41.1031C101.588 39.9781 101.413 38.4125 99.9645 37.2617C98.64 36.2117 97.0896 36.1143 95.5971 36.1143H91.0757C90.2646 36.1143 88.9644 36.1143 88.2285 36.847C87.7109 37.3358 87.6875 37.947 87.6875 38.4349V49.0746Z" fill="white"/>
<path fill-rule="evenodd" clip-rule="evenodd" d="M102.805 49.0746H112.113C112.774 49.0746 113.56 49.0005 114.249 48.4617C115.133 47.7531 115.331 46.6513 115.331 45.6987C115.331 45.1367 115.281 44.0858 114.669 43.2039C114.054 42.2987 113.045 41.9082 111.672 41.4444L108.378 40.3453C107.815 40.1487 107.987 40.1737 107.398 39.9781C107.249 39.9281 107.127 39.8789 107.127 39.6832C107.127 39.5117 107.225 39.4875 107.347 39.4625C107.545 39.4151 107.741 39.4367 107.911 39.4367H114.985V36.1143H106.291C104.943 36.1143 103.958 36.3082 103.274 37.3358C102.805 38.0229 102.658 38.8522 102.658 39.6599C102.658 40.2944 102.782 41.2263 103.148 41.8367C103.639 42.6436 104.648 43.1574 105.827 43.547L108.625 44.4513C109.658 44.7944 109.926 44.8686 110.1 44.9643C110.197 45.0134 110.321 45.0875 110.321 45.2591C110.321 45.3806 110.272 45.4548 110.197 45.5013L109.903 45.6013H102.805V49.0746Z" fill="white"/>
<path fill-rule="evenodd" clip-rule="evenodd" d="M38.1922 49.0746V45.6013H37.4814C36.8677 45.6013 36.034 45.5772 35.3683 44.9901C34.6559 44.3531 34.5321 43.3531 34.5321 42.397V36.1143H29.7207V45.0134C29.7207 46.1884 30.2851 47.4599 31.3646 48.1944C32.69 49.0746 34.436 49.0746 35.3943 49.0746H38.1922Z" fill="white"/>
<path fill-rule="evenodd" clip-rule="evenodd" d="M73.618 37.2874C75.0126 36.0382 77.2798 35.9658 79.3002 35.9658C81.3294 35.9658 83.5948 36.0382 84.9877 37.2874C86.5805 38.7296 86.6766 41.2977 86.6766 42.5934C86.6766 43.8882 86.5805 46.4581 84.9877 47.8994C83.5948 49.1503 81.3294 49.2244 79.3002 49.2244C77.2798 49.2244 75.0126 49.1503 73.618 47.8994C72.0269 46.4581 71.9316 43.8882 71.9316 42.5934C71.9316 41.2977 72.0269 38.7296 73.618 37.2874ZM77.207 40.2701C77.04 40.5132 76.7474 41.0753 76.7474 42.5934C76.7474 44.0132 77.014 44.5977 77.207 44.8684C77.3049 45.0132 77.858 45.7477 79.3002 45.7477C80.5814 45.7477 81.1597 45.1848 81.3761 44.8684C81.7605 44.3313 81.8583 43.5219 81.8583 42.5934C81.8583 41.2236 81.6419 40.6124 81.4004 40.2701C81.1597 39.9538 80.6039 39.4391 79.3002 39.4391C78.0035 39.4391 77.4486 39.9538 77.207 40.2701Z" fill="white"/>
<path opacity="0.3" fill-rule="evenodd" clip-rule="evenodd" d="M46.0531 12.9914L51.5683 10.9914C52.4409 10.6758 53.4096 11.1267 53.7247 11.9914L55.7365 17.4853C56.0508 18.3552 55.5989 19.3207 54.7297 19.6336L49.2111 21.6353C48.3428 21.9508 47.3715 21.4991 47.0538 20.6336L45.0481 15.1379C44.7321 14.2707 45.184 13.306 46.0531 12.9914Z" fill="white"/>
<path opacity="0.3" fill-rule="evenodd" clip-rule="evenodd" d="M75.1077 2.45977L80.6264 0.45805C81.4973 0.142533 82.4659 0.594257 82.7819 1.45977L84.7929 6.95719C85.1123 7.82184 84.657 8.78736 83.7861 9.10374L78.2657 11.1055C77.3974 11.4201 76.4279 10.9675 76.1119 10.1012L74.1036 4.60719C73.7859 3.74081 74.2386 2.77357 75.1077 2.45977Z" fill="white"/>
<path opacity="0.3" fill-rule="evenodd" clip-rule="evenodd" d="M84.1847 27.2902L89.7034 25.2902C90.5725 24.9747 91.5429 25.4255 91.8606 26.2919L93.8681 31.7876C94.1876 32.654 93.7322 33.6212 92.8631 33.9359L87.3427 35.9376C86.4744 36.2505 85.5049 35.8014 85.1855 34.9333L83.1788 29.4367C82.8629 28.5729 83.3156 27.6048 84.1847 27.2902Z" fill="white"/>
<path fill-rule="evenodd" clip-rule="evenodd" d="M76.7033 27.1031L76.4176 27.2264L67.0813 30.6082C65.6123 31.1427 63.9701 30.3815 63.4343 28.916L60.3672 20.5195L60.6529 20.397L69.9857 17.016C71.4582 16.4807 73.1004 17.2427 73.6345 18.71L76.7033 27.1031Z" fill="white"/>
<path opacity="0.3" fill-rule="evenodd" clip-rule="evenodd" d="M72.0397 12.4336C71.7168 12.4336 71.3905 12.4888 71.0693 12.6043L61.7365 15.9888C60.2666 16.5207 59.5013 18.156 60.0355 19.6198L60.367 20.5198L60.6527 20.3982L69.9855 17.0155C70.3067 16.9 70.6313 16.8457 70.9525 16.8457C72.1176 16.8457 73.2145 17.562 73.6343 18.7095L76.7014 27.0905C77.9774 26.4586 78.6171 24.9595 78.1168 23.5922L74.7181 14.2957C74.3 13.15 73.2032 12.4336 72.0397 12.4336Z" fill="white"/>
<path opacity="0.3" fill-rule="evenodd" clip-rule="evenodd" d="M60.3705 20.5332C59.0919 21.166 58.453 22.666 58.9499 24.0306L62.3485 33.328C62.7692 34.4754 63.8669 35.1918 65.0321 35.1918C65.3515 35.1918 65.6779 35.1375 65.9991 35.022L75.3301 31.6375C76.8009 31.1048 77.5688 29.4685 77.0312 28.0056L76.7031 27.103L76.4192 27.2263L67.0829 30.6091C66.7617 30.7246 66.4371 30.7789 66.1159 30.7789C64.9507 30.7789 63.8531 30.0625 63.4341 28.916L60.3705 20.5332Z" fill="white"/>
<path fill-rule="evenodd" clip-rule="evenodd" d="M60.3711 20.5332L63.433 28.916C63.852 30.0625 64.9514 30.7789 66.1148 30.7789C66.436 30.7789 66.7623 30.7246 67.08 30.6091L76.4163 27.2263L67.08 30.6091C66.7623 30.7246 66.436 30.7789 66.1148 30.7789C64.9514 30.7789 63.852 30.0625 63.433 28.916L60.3711 20.5332Z" fill="#95989B"/>
</svg>
