<svg width="16" height="18" viewBox="0 0 16 18" stroke="currentColor" fill="currentColor" xmlns="http://www.w3.org/2000/svg">
<path d="M1 4.1998H2.6H15.4" stroke="currentColor" stroke-linecap="round" stroke-linejoin="round"/>
<path d="M14.2996 6.59998C14.2996 6.32384 14.0758 6.09998 13.7996 6.09998C13.5235 6.09998 13.2996 6.32384 13.2996 6.59998H14.2996ZM3.09964 6.59998C3.09964 6.32384 2.87578 6.09998 2.59964 6.09998C2.3235 6.09998 2.09964 6.32384 2.09964 6.59998H3.09964ZM4.49957 4.2C4.49957 4.47614 4.72343 4.7 4.99957 4.7C5.27571 4.7 5.49957 4.47614 5.49957 4.2H4.49957ZM10.8996 4.2C10.8996 4.47614 11.1234 4.7 11.3996 4.7C11.6757 4.7 11.8996 4.47614 11.8996 4.2H10.8996ZM13.2996 6.59998V15.4H14.2996V6.59998H13.2996ZM13.2996 15.4C13.2996 16.0075 12.8072 16.5 12.1996 16.5V17.5C13.3594 17.5 14.2996 16.5598 14.2996 15.4H13.2996ZM12.1996 16.5H4.19964V17.5H12.1996V16.5ZM4.19964 16.5C3.59212 16.5 3.09964 16.0075 3.09964 15.4H2.09964C2.09964 16.5598 3.03984 17.5 4.19964 17.5V16.5ZM3.09964 15.4V6.59998H2.09964V15.4H3.09964ZM5.49957 4.2V2.6H4.49957V4.2H5.49957ZM5.49957 2.6C5.49957 1.99249 5.99206 1.5 6.59957 1.5V0.5C5.43977 0.5 4.49957 1.4402 4.49957 2.6H5.49957ZM6.59957 1.5H9.79957V0.5H6.59957V1.5ZM9.79957 1.5C10.4071 1.5 10.8996 1.99249 10.8996 2.6H11.8996C11.8996 1.4402 10.9594 0.5 9.79957 0.5V1.5ZM10.8996 2.6V4.2H11.8996V2.6H10.8996Z" fill="#C2CBDA"/>
<path d="M6.59922 8.2002V13.0002" stroke="currentColor" stroke-linecap="round" stroke-linejoin="round"/>
<path d="M9.80039 8.2002V13.0002" stroke="currentColor" stroke-linecap="round" stroke-linejoin="round"/>
</svg>
