<svg width="41" height="28" viewBox="0 0 41 28" fill="none" xmlns="http://www.w3.org/2000/svg">
<path fill-rule="evenodd" clip-rule="evenodd" d="M33.2912 9.40048C31.5124 6.24426 28.0096 4.43351 24.2522 5.02961C22.7769 1.95352 19.6933 0 16.2244 0C11.3151 0 7.31963 3.97041 7.31963 8.85085C7.31963 9.05192 7.32765 9.25951 7.34587 9.47482C3.10836 10.4353 0 14.2366 0 18.6147C0 23.79 4.23617 27.9993 9.44337 27.9993H16.4396H16.907H18.6538V17.5914L17.3344 18.9025C16.6419 19.591 15.4342 19.591 14.7421 18.9025C14.3965 18.5588 14.2043 18.1008 14.2043 17.6146C14.2043 17.1276 14.3958 16.6717 14.743 16.3282L19.1924 11.9045C19.5323 11.5664 20.0048 11.3726 20.4872 11.3726L20.6652 11.3784C21.0951 11.4128 21.4954 11.5959 21.8062 11.9023L26.2586 16.3282C26.605 16.6718 26.796 17.1284 26.796 17.6154C26.796 18.1008 26.605 18.5604 26.2577 18.9039C25.5679 19.5917 24.358 19.5917 23.6658 18.9039L22.3195 17.5639V28H31.5569C36.7642 28 41 23.79 41 18.6155C41 14.1119 37.7131 10.2201 33.2912 9.40048Z" fill="url(#paint0_linear_1115_42)"/>
<defs>
<linearGradient id="paint0_linear_1115_42" x1="-22.2339" y1="15.4562" x2="7.63109" y2="55.067" gradientUnits="userSpaceOnUse">
<stop stop-color="#8065EC"/>
<stop offset="1" stop-color="#314AD7"/>
</linearGradient>
</defs>
</svg>
