<svg width="30" height="30" viewBox="0 0 30 30" fill="currentColor" xmlns="http://www.w3.org/2000/svg">
<path fill-rule="evenodd" clip-rule="evenodd" d="M16.6996 14.4613C16.6996 13.3946 15.8322 12.5268 14.7655 12.5268C13.6987 12.5268 12.8305 13.3946 12.8305 14.4613C12.8305 15.5277 13.6987 16.3955 14.7655 16.3955C15.8322 16.3955 16.6996 15.5277 16.6996 14.4613ZM18.3073 14.4613C18.3073 16.4144 16.7185 18.0036 14.7655 18.0036C12.812 18.0036 11.2228 16.4144 11.2228 14.4613C11.2228 12.5083 12.812 10.9191 14.7655 10.9191C16.7185 10.9191 18.3073 12.5083 18.3073 14.4613ZM21.0253 12.0694C21.0253 11.4106 20.4895 10.8748 19.8311 10.8748H18.8592C18.1626 10.8748 17.5481 10.532 17.1944 9.95722L16.7518 9.24177H12.7787L12.3345 9.95923C11.9824 10.532 11.3679 10.8748 10.6926 10.8748H9.69984C9.04106 10.8748 8.50528 11.4106 8.50528 12.0694V17.6077C8.50528 18.2665 9.04106 18.8023 9.69984 18.8023H19.8311C20.4895 18.8023 21.0253 18.2665 21.0253 17.6077V12.0694ZM22.633 12.0694V17.6077C22.633 19.1528 21.3761 20.41 19.8311 20.41H9.69984C8.15479 20.41 6.89752 19.1528 6.89752 17.6077V12.0694C6.89752 10.5244 8.15479 9.26709 9.69984 9.26709H10.6713C10.8052 9.26709 10.9077 9.21041 10.9659 9.11475L11.6476 8.01465C11.7939 7.77791 12.0524 7.63401 12.3309 7.63401H17.1996C17.4781 7.63401 17.7366 7.77791 17.8829 8.01465L18.563 9.11274C18.6229 9.21042 18.7254 9.26709 18.8379 9.26709H19.8311C21.3761 9.26709 22.633 10.5244 22.633 12.0694ZM26.2701 5.49811C23.4534 2.00366 19.2632 0 14.7727 0H14.7655C13.3945 0 12.0315 0.190921 10.7135 0.567135C10.2867 0.68852 10.0395 1.13347 10.1613 1.56032C10.2826 1.98718 10.7268 2.23518 11.1549 2.11259C12.3289 1.77777 13.5436 1.60775 14.7659 1.60775H14.7723C18.774 1.60775 22.5084 3.39356 25.0185 6.50698C27.2239 9.24257 28.2316 12.6731 27.8566 16.1672C27.5455 19.0639 26.3128 21.7147 24.3424 23.7939L24.3429 21.6898C24.3429 21.2461 23.9827 20.8859 23.539 20.8859C23.0948 20.8859 22.7351 21.2461 22.7351 21.6898L22.7343 25.6308C22.7343 25.6421 22.7371 25.6529 22.7371 25.6638C22.7383 25.6919 22.7419 25.7196 22.746 25.7474C22.7496 25.7731 22.754 25.798 22.7596 25.8225C22.7656 25.847 22.7737 25.8712 22.7821 25.8953C22.7914 25.9218 22.801 25.9475 22.8131 25.9728C22.8227 25.9933 22.8344 26.0134 22.846 26.0335C22.8613 26.0601 22.8778 26.0858 22.8959 26.1099C22.9023 26.1183 22.9059 26.1272 22.9124 26.1352C22.9196 26.1437 22.928 26.1497 22.9353 26.1581C22.9606 26.1871 22.9883 26.2136 23.0177 26.2389C23.0329 26.2522 23.0482 26.2655 23.0643 26.2775C23.0948 26.3 23.1274 26.3189 23.1612 26.337C23.1772 26.3454 23.1925 26.3555 23.209 26.3627C23.2488 26.3808 23.2902 26.3937 23.3332 26.4053C23.3448 26.4085 23.3565 26.4134 23.3686 26.4162C23.4232 26.4274 23.4795 26.4347 23.5378 26.4347L27.4764 26.4359H27.4768C27.9209 26.4359 28.2806 26.0757 28.2806 25.6324C28.2806 25.1883 27.9213 24.8281 27.4772 24.8281L25.5784 24.8277C27.7513 22.5053 29.1098 19.5571 29.4551 16.3388C29.8759 12.4175 28.7449 8.56772 26.2701 5.49811ZM19.3701 28.0046C19.4919 28.4319 19.2447 28.8765 18.8182 28.9986C17.4701 29.3841 16.0999 29.571 14.7454 29.571C10.3522 29.571 6.11334 27.6063 3.26119 24.0673C-1.40129 18.2834 -0.972024 10.0215 3.95775 4.73845L2.05336 4.73805C1.60922 4.73805 1.24989 4.37751 1.24989 3.93377C1.24989 3.49003 1.60962 3.1303 2.05377 3.1303L5.99477 3.1315C6.00804 3.1315 6.0217 3.13431 6.03497 3.13512C6.0627 3.13673 6.09003 3.13914 6.11776 3.14356C6.14188 3.14758 6.1656 3.152 6.18971 3.15843C6.21624 3.16486 6.24196 3.1725 6.26809 3.18215C6.291 3.19059 6.31311 3.19943 6.33562 3.21028C6.36013 3.22194 6.38425 3.2344 6.40837 3.24887C6.42967 3.26213 6.45057 3.2762 6.47107 3.29107C6.49197 3.30675 6.51247 3.32363 6.53257 3.34171C6.54221 3.35056 6.55387 3.35739 6.56311 3.36663C6.57397 3.37749 6.5816 3.39035 6.59165 3.4012C6.60089 3.41165 6.61134 3.41969 6.62019 3.43054C6.62742 3.43979 6.63225 3.45024 6.63948 3.45988C6.65636 3.48279 6.67123 3.50611 6.6853 3.53063C6.69857 3.55273 6.71062 3.57564 6.72188 3.59896C6.73273 3.62227 6.74157 3.64598 6.75001 3.6701C6.75926 3.69582 6.7673 3.72155 6.77373 3.74807C6.77935 3.77179 6.78337 3.79631 6.78699 3.82042C6.79101 3.84816 6.79382 3.87468 6.79463 3.90202C6.79543 3.91327 6.79825 3.92412 6.79825 3.93578L6.79624 7.87638C6.79584 8.32052 6.4365 8.67986 5.99236 8.67986H5.99196C5.54822 8.67946 5.18808 8.31972 5.18848 7.87558L5.18969 5.77625C0.745056 10.4813 0.341108 17.883 4.51323 23.0588C7.83886 27.1843 13.2807 28.909 18.3761 27.4528C18.8033 27.3302 19.2483 27.5782 19.3701 28.0046Z" fill="currentColor"/>
</svg>
