<svg width="13" height="13" viewBox="0 0 13 13" fill="none" xmlns="http://www.w3.org/2000/svg">
<path fill-rule="evenodd" clip-rule="evenodd" d="M7.54696 0.585816C6.7659 -0.195271 5.49952 -0.195272 4.71847 0.585814L0.585759 4.71869C-0.195283 5.49976 -0.195249 6.76611 0.585838 7.54714L4.71855 11.6795C5.49959 12.4605 6.76584 12.4605 7.54687 11.6795L11.6796 7.54714C12.4607 6.76611 12.4607 5.49977 11.6797 4.71869L7.54696 0.585816ZM5.99997 7.71824C5.57301 7.71824 5.2265 7.37173 5.2265 6.94478V3.07746C5.2265 2.65051 5.57301 2.304 5.99997 2.304C6.42692 2.304 6.77343 2.65051 6.77343 3.07746V6.94478C6.77343 7.37173 6.42692 7.71824 5.99997 7.71824ZM5.2265 9.26521C5.2265 9.69216 5.57301 10.0387 5.99997 10.0387C6.42692 10.0387 6.77343 9.69216 6.77343 9.26521C6.77343 8.83826 6.42692 8.49175 5.99997 8.49175C5.57301 8.49175 5.2265 8.83826 5.2265 9.26521Z" fill="#EF2F00"/>
</svg>
