<svg width="12" height="12" viewBox="0 0 12 12" fill="#009a73" xmlns="http://www.w3.org/2000/svg">
<path fill-rule="evenodd" clip-rule="evenodd" d="M6 12C9.31371 12 12 9.31371 12 6C12 2.68629 9.31371 0 6 0C2.68629 0 0 2.68629 0 6C0 9.31371 2.68629 12 6 12ZM4.4714 5.5286C4.21106 5.26825 3.78895 5.26825 3.5286 5.5286C3.26825 5.78895 3.26825 6.21106 3.5286 6.4714L4.86193 7.80474C5.12228 8.06509 5.54439 8.06509 5.80474 7.80474L8.47141 5.13807C8.73175 4.87772 8.73175 4.45561 8.47141 4.19526C8.21105 3.93491 7.78895 3.93491 7.5286 4.19526L5.33333 6.39052L4.4714 5.5286Z" fill="#009a73"/>
</svg>
