<svg width="32" height="32" viewBox="0 0 32 32" fill="none" xmlns="http://www.w3.org/2000/svg">
<path fill-rule="evenodd" clip-rule="evenodd" d="M16.928 2.26219C16.0602 1.39429 14.6531 1.39429 13.7852 2.26219L2.26127 13.7868C1.39347 14.6547 1.3935 16.0617 2.26136 16.9295L13.7853 28.4528C14.6532 29.3206 16.0601 29.3206 16.9279 28.4528L28.4519 16.9295C29.3198 16.0617 29.3198 14.6547 28.452 13.7868L16.928 2.26219ZM15.4572 18.1244C14.7212 18.1244 14.1238 17.5271 14.1238 16.7911V10.1244C14.1238 9.38844 14.7212 8.79111 15.4572 8.79111C16.1932 8.79111 16.7905 9.38844 16.7905 10.1244V16.7911C16.7905 17.5271 16.1932 18.1244 15.4572 18.1244ZM14.1238 22.1244C14.1238 22.8604 14.7212 23.4578 15.4572 23.4578C16.1932 23.4578 16.7905 22.8604 16.7905 22.1244C16.7905 21.3884 16.1932 20.7911 15.4572 20.7911C14.7212 20.7911 14.1238 21.3884 14.1238 22.1244Z" fill="#42526E"/>
<mask id="mask0_3119_2812" style="mask-type:alpha" maskUnits="userSpaceOnUse" x="1" y="1" width="29" height="29">
<path fill-rule="evenodd" clip-rule="evenodd" d="M16.928 2.26219C16.0602 1.39429 14.6531 1.39429 13.7852 2.26219L2.26127 13.7868C1.39347 14.6547 1.3935 16.0617 2.26136 16.9295L13.7853 28.4528C14.6532 29.3206 16.0601 29.3206 16.9279 28.4528L28.4519 16.9295C29.3198 16.0617 29.3198 14.6547 28.452 13.7868L16.928 2.26219ZM15.4572 18.1244C14.7212 18.1244 14.1238 17.5271 14.1238 16.7911V10.1244C14.1238 9.38844 14.7212 8.79111 15.4572 8.79111C16.1932 8.79111 16.7905 9.38844 16.7905 10.1244V16.7911C16.7905 17.5271 16.1932 18.1244 15.4572 18.1244ZM14.1238 22.1244C14.1238 22.8604 14.7212 23.4578 15.4572 23.4578C16.1932 23.4578 16.7905 22.8604 16.7905 22.1244C16.7905 21.3884 16.1932 20.7911 15.4572 20.7911C14.7212 20.7911 14.1238 21.3884 14.1238 22.1244Z" fill="white"/>
</mask>
<g mask="url(#mask0_3119_2812)">
<path d="M0 0H16H32V32H0V0Z" fill="#EF2F00"/>
</g>
</svg>
