<svg width="32" height="32" viewBox="0 0 32 32" fill="none" xmlns="http://www.w3.org/2000/svg">
<path fill-rule="evenodd" clip-rule="evenodd" d="M16 28C22.6274 28 28 22.6274 28 16C28 9.37258 22.6274 4 16 4C9.37258 4 4 9.37258 4 16C4 22.6274 9.37258 28 16 28ZM16 22.6667C16.736 22.6667 17.3333 22.0693 17.3333 21.3333V14.6667C17.3333 13.9307 16.736 13.3333 16 13.3333C15.264 13.3333 14.6667 13.9307 14.6667 14.6667V21.3333C14.6667 22.0693 15.264 22.6667 16 22.6667ZM16 10.6667C16.736 10.6667 17.3333 10.0693 17.3333 9.33333C17.3333 8.59733 16.736 8 16 8C15.264 8 14.6667 8.59733 14.6667 9.33333C14.6667 10.0693 15.264 10.6667 16 10.6667Z" fill="#42526E"/>
<mask id="mask0_3119_2794" style="mask-type:alpha" maskUnits="userSpaceOnUse" x="4" y="4" width="24" height="24">
<path fill-rule="evenodd" clip-rule="evenodd" d="M16 28C22.6274 28 28 22.6274 28 16C28 9.37258 22.6274 4 16 4C9.37258 4 4 9.37258 4 16C4 22.6274 9.37258 28 16 28ZM16 22.6667C16.736 22.6667 17.3333 22.0694 17.3333 21.3334V14.6667C17.3333 13.9307 16.736 13.3334 16 13.3334C15.264 13.3334 14.6667 13.9307 14.6667 14.6667V21.3334C14.6667 22.0694 15.264 22.6667 16 22.6667ZM16 10.6667C16.736 10.6667 17.3333 10.0693 17.3333 9.33333C17.3333 8.59733 16.736 8 16 8C15.264 8 14.6667 8.59733 14.6667 9.33333C14.6667 10.0693 15.264 10.6667 16 10.6667Z" fill="white"/>
</mask>
<g mask="url(#mask0_3119_2794)">
<rect width="32" height="32" fill="#314AD7"/>
</g>
</svg>
