<svg width="32" height="32" viewBox="0 0 32 32" fill="none" xmlns="http://www.w3.org/2000/svg">
<path fill-rule="evenodd" clip-rule="evenodd" d="M16 28C22.6274 28 28 22.6274 28 16C28 9.37258 22.6274 4 16 4C9.37258 4 4 9.37258 4 16C4 22.6274 9.37258 28 16 28ZM12.05 14.868C11.5293 14.3473 10.6851 14.3473 10.1644 14.868C9.64368 15.3887 9.64368 16.2329 10.1644 16.7536L13.7239 20.3631C14.2446 20.8838 15.0888 20.8838 15.6095 20.3631L22.2533 13.7428C22.774 13.2221 22.774 12.3779 22.2533 11.8572C21.7326 11.3365 20.8883 11.3365 20.3676 11.8572L14.6667 17.5346L12.05 14.868Z" fill="#42526E"/>
<mask id="mask0_3119_2770" style="mask-type:alpha" maskUnits="userSpaceOnUse" x="4" y="4" width="24" height="24">
<path fill-rule="evenodd" clip-rule="evenodd" d="M16 28C22.6274 28 28 22.6274 28 16C28 9.37258 22.6274 4 16 4C9.37258 4 4 9.37258 4 16C4 22.6274 9.37258 28 16 28ZM12.05 14.868C11.5293 14.3473 10.6851 14.3473 10.1644 14.868C9.64368 15.3887 9.64368 16.2329 10.1644 16.7536L13.7239 20.3631C14.2446 20.8838 15.0888 20.8838 15.6095 20.3631L22.2533 13.7428C22.774 13.2221 22.774 12.3779 22.2533 11.8572C21.7326 11.3365 20.8883 11.3365 20.3676 11.8572L14.6667 17.5346L12.05 14.868Z" fill="white"/>
</mask>
<g mask="url(#mask0_3119_2770)">
<rect width="32" height="32" fill="#009A73"/>
</g>
</svg>
