<svg width="32" height="32" viewBox="0 0 32 32" fill="none" xmlns="http://www.w3.org/2000/svg">
<path fill-rule="evenodd" clip-rule="evenodd" d="M14.0486 4.55573C14.8189 3.22516 16.7399 3.22516 17.5103 4.55573L28.708 23.8973C29.48 25.2307 28.5179 26.8994 26.9772 26.8994H4.58165C3.04099 26.8994 2.07887 25.2307 2.8508 23.8973L14.0486 4.55573ZM15.858 18.4985C15.122 18.4985 14.5247 17.9012 14.5247 17.1652V10.4985C14.5247 9.76249 15.122 9.16515 15.858 9.16515C16.594 9.16515 17.1914 9.76249 17.1914 10.4985V17.1652C17.1914 17.9012 16.594 18.4985 15.858 18.4985ZM14.5247 22.4985C14.5247 23.2345 15.122 23.8318 15.858 23.8318C16.594 23.8318 17.1914 23.2345 17.1914 22.4985C17.1914 21.7625 16.594 21.1652 15.858 21.1652C15.122 21.1652 14.5247 21.7625 14.5247 22.4985Z" fill="black"/>
<mask id="mask0_3119_2739" style="mask-type:alpha" maskUnits="userSpaceOnUse" x="2" y="3" width="27" height="24">
<path fill-rule="evenodd" clip-rule="evenodd" d="M14.0486 4.55573C14.8189 3.22516 16.7399 3.22516 17.5103 4.55573L28.708 23.8973C29.48 25.2307 28.5179 26.8994 26.9772 26.8994H4.58165C3.04099 26.8994 2.07887 25.2307 2.8508 23.8973L14.0486 4.55573ZM15.858 18.4985C15.122 18.4985 14.5247 17.9012 14.5247 17.1652V10.4985C14.5247 9.76249 15.122 9.16515 15.858 9.16515C16.594 9.16515 17.1914 9.76249 17.1914 10.4985V17.1652C17.1914 17.9012 16.594 18.4985 15.858 18.4985ZM14.5247 22.4985C14.5247 23.2345 15.122 23.8318 15.858 23.8318C16.594 23.8318 17.1914 23.2345 17.1914 22.4985C17.1914 21.7625 16.594 21.1652 15.858 21.1652C15.122 21.1652 14.5247 21.7625 14.5247 22.4985Z" fill="white"/>
</mask>
<g mask="url(#mask0_3119_2739)">
<rect width="32" height="32" fill="#FB9700"/>
</g>
</svg>
